<svg width="20" height="20" viewBox="0 0 20 20" fill="none" xmlns="http://www.w3.org/2000/svg">
<path fill-rule="evenodd" clip-rule="evenodd" d="M9.99974 3.86667C11.8775 3.86667 13.1442 4.67778 13.8664 5.35556L16.6886 2.6C14.9553 0.988889 12.6997 0 9.99974 0C6.08863 0 2.71085 2.24444 1.06641 5.51111L4.29974 8.02222C5.11085 5.61111 7.3553 3.86667 9.99974 3.86667Z" fill="#EA4335"/>
<path fill-rule="evenodd" clip-rule="evenodd" d="M19.6 10.2222C19.6 9.39996 19.5333 8.79996 19.3889 8.17773H10V11.8888H15.5111C15.4 12.8111 14.8 14.2 13.4667 15.1333L16.6222 17.5777C18.5111 15.8333 19.6 13.2666 19.6 10.2222Z" fill="#4285F4"/>
<path fill-rule="evenodd" clip-rule="evenodd" d="M4.31111 11.9779C4.1 11.3557 3.97778 10.689 3.97778 10.0001C3.97778 9.31123 4.1 8.64456 4.3 8.02234L1.06667 5.51123C0.388889 6.86679 0 8.38901 0 10.0001C0 11.6112 0.388889 13.1335 1.06667 14.489L4.31111 11.9779Z" fill="#FBBC05"/>
<path fill-rule="evenodd" clip-rule="evenodd" d="M10.0003 20.0003C12.7003 20.0003 14.967 19.1114 16.6226 17.578L13.467 15.1336C12.6226 15.7225 11.4892 16.1336 10.0003 16.1336C7.3559 16.1336 5.11146 14.3891 4.31146 11.978L1.07812 14.4891C2.72257 17.7558 6.08924 20.0003 10.0003 20.0003Z" fill="#34A853"/>
</svg>
